<svg width="38" height="37" viewBox="0 0 38 37" fill="none" xmlns="http://www.w3.org/2000/svg">
  <path fill-rule="evenodd" clip-rule="evenodd"
    d="M12.2301 2.89062C13.195 2.89062 13.9772 3.66713 13.9772 4.625V10.4062C13.9772 11.3641 13.195 12.1406 12.2301 12.1406C11.2651 12.1406 10.4829 11.3641 10.4829 10.4062V4.625C10.4829 3.66713 11.2651 2.89062 12.2301 2.89062Z"
    fill="#1B1D1E" />
  <path fill-rule="evenodd" clip-rule="evenodd"
    d="M12.2301 15.0312C13.195 15.0312 13.9772 15.8078 13.9772 16.7656V32.375C13.9772 33.3329 13.195 34.1094 12.2301 34.1094C11.2651 34.1094 10.4829 33.3329 10.4829 32.375V16.7656C10.4829 15.8078 11.2651 15.0312 12.2301 15.0312Z"
    fill="#1B1D1E" />
  <path fill-rule="evenodd" clip-rule="evenodd"
    d="M6.98861 2.89062C7.95354 2.89062 8.73577 3.66713 8.73577 4.625V11.5625C8.73577 12.4825 9.10392 13.3648 9.75924 14.0153C10.4145 14.6658 11.3033 15.0312 12.2301 15.0312C13.1568 15.0312 14.0456 14.6658 14.7009 14.0153C15.3563 13.3648 15.7244 12.4825 15.7244 11.5625V4.625C15.7244 3.66713 16.5066 2.89062 17.4716 2.89062C18.4365 2.89062 19.2187 3.66713 19.2187 4.625V11.5625C19.2187 13.4024 18.4824 15.167 17.1718 16.4681C15.8612 17.7691 14.0836 18.5 12.2301 18.5C10.3766 18.5 8.599 17.7691 7.28838 16.4681C5.97776 15.167 5.24146 13.4024 5.24146 11.5625V4.625C5.24146 3.66713 6.02368 2.89062 6.98861 2.89062Z"
    fill="#1B1D1E" />
  <path fill-rule="evenodd" clip-rule="evenodd"
    d="M30.7041 3.20444C31.1709 3.52902 31.4489 4.05924 31.4489 4.62501V32.375C31.4489 33.3329 30.6667 34.1094 29.7017 34.1094C28.7368 34.1094 27.9546 33.3329 27.9546 32.375V24.8594H21.5483C21.0525 24.8594 20.5801 24.6503 20.2487 24.2842C19.9174 23.9182 19.7583 23.4296 19.8111 22.9402L21.5483 23.125C19.8111 22.9402 19.8111 22.9407 19.8111 22.9402L19.8117 22.9348L19.8129 22.9234L19.8175 22.8834C19.8214 22.8491 19.8271 22.7999 19.8347 22.7366C19.85 22.6099 19.8729 22.4269 19.9042 22.1949C19.9667 21.731 20.0629 21.07 20.1986 20.2712C20.4692 18.6778 20.9003 16.5166 21.5417 14.2694C22.1794 12.0352 23.0449 9.64415 24.2095 7.62835C25.3519 5.65107 26.9281 3.78073 29.1046 2.99506C29.6403 2.80171 30.2372 2.87986 30.7041 3.20444ZM23.5547 21.3906H27.9546V8.25023C27.714 8.57952 27.4757 8.9473 27.2407 9.35409C26.276 11.0238 25.5035 13.1133 24.9037 15.215C24.3075 17.3038 23.9014 19.334 23.6442 20.8479C23.612 21.0375 23.5822 21.2188 23.5547 21.3906Z"
    fill="#1B1D1E" />
</svg>
